{"title":"The.Martian.2015.HDTS.NEWSOURCE.XviD.AC3-CM8","uid":12939866,"size":1706530464,"categoryP":"video","categoryS":"movies","magnet":"?xt=urn:btih:1b75fbd9b91c85fd0a015425558a0b1412fb2129&amp;dn=The.Martian.2015.HDTS.NEWSOURCE.XviD.AC3-CM8&amp;tr=udp%3A%2F%2Ftracker.leechers-paradise.org%3A6969&amp;tr=udp%3A%2F%2Fzer0day.ch%3A1337&amp;tr=udp%3A%2F%2Fopen.demonii.com%3A1337&amp;tr=udp%3A%2F%2Ftracker.coppersurfer.tk%3A6969&amp;tr=udp%3A%2F%2Fexodus.desync.com%3A6969","seeders":0,"leechers":0,"uploader":"TvTeam","files":4,"time":1449619531,"description":"------------------------------------------------------------------------\r\n\r  https://www.torrenting.com\r\n\r\nSign up is OPEN - for time being. Come and have fun.\r\n\r\n------------------------------------------------------------------------[center][img]http://img905.imageshack.us/img905/9339/IVMxni.jpg[/img]\n\nThe.Martian.2015.HDTS.NEWSOURCE.XviD.AC3-CM8\n\n[url]http://www.imdb.com/title/tt3659388/[/url]\n\nSOURCE: 1080p-HOM [Thnx]\n                            \nGeneral\nComplete name                            : The.Martian.2015.HDTS.NEWSOURCE.XviD.AC3-CM8.avi\nFormat                                   : AVI\nFormat/Info                              : Audio Video Interleave\nFile size                                : 1.55 GiB\nDuration                                 : 2h 15mn\nOverall bit rate                         : 1 638 Kbps\n\nVideo\nID                                       : 0\nFormat                                   : MPEG-4 Visual\nFormat profile                           : Advanced   \nFormat settings, BVOP                    : 2\nFormat settings, QPel                    : No\nFormat settings, GMC                     : No warppoints\nFormat settings, Matrix                  : Default (H.263)\nMuxing mode                              : Packed bitstream\nCodec ID                                 : XVID\nCodec ID/Hint                            : XviD\nDuration                                 : 2h 15mn\nBit rate                                 : 1 439 Kbps\nWidth                                    : 720 pixels\nHeight                                   : 272 pixels\nDisplay aspect ratio                     : 2.647\nFrame rate                               : 24.000 fps\nColor space                              : YUV\nChroma subsampling                       : 4:2:0\nBit depth                                : 8 bits\nScan type                                : Progressive\nCompression mode                         : Lossy\nBits/(Pixel*Frame)                       : 0.306\nStream size                              : 1.36 GiB (88%)\nWriting library                          : XviD 73\n\nAudio\nID                                       : 1\nFormat                                   : AC-3\nFormat/Info                              : Audio Coding 3\nMode extension                           : CM (complete main)\nFormat settings, Endianness              : Big\nCodec ID                                 : 2000\nDuration                                 : 2h 15mn\nBit rate mode                            : Constant\nBit rate                                 : 192 Kbps\nChannel(s)                               : 2 channels\nChannel positions                        : Front: L R\nSampling rate                            : 48.0 KHz\nCompression mode                         : Lossy\nStream size                              : 186 MiB (12%)\nAlignment                                : Aligned on interleaves\nInterleave, duration                     : 64 ms (1.54 video frames)\nInterleave, preload duration             : 192 ms\nTitle                                    : hom-martian_1080 - [0] English\n\n[img]http://i.imgur.com/SVcAK2z.jpg[/img]\n[img]http://i.imgur.com/xuPCAov.jpg[/img]\n[img]http://i.imgur.com/pWvYK5X.jpg[/img]\n[img]http://i.imgur.com/wh6a2xc.jpg[/img]\n[img]http://i.imgur.com/RHjBuyc.jpg[/img]\n[img]http://i.imgur.com/Dn8xdQK.jpg[/img]\n[img]http://i.imgur.com/C5VgFpb.jpg[/img][/center]","torrent":{"xt":"urn:btih:1b75fbd9b91c85fd0a015425558a0b1412fb2129","amp;dn":"The.Martian.2015.HDTS.NEWSOURCE.XviD.AC3-CM8","amp;tr":["udp%3A%2F%2Ftracker.leechers-paradise.org%3A6969","udp%3A%2F%2Fzer0day.ch%3A1337","udp%3A%2F%2Fopen.demonii.com%3A1337","udp%3A%2F%2Ftracker.coppersurfer.tk%3A6969","udp%3A%2F%2Fexodus.desync.com%3A6969"],"infoHash":"1b75fbd9b91c85fd0a015425558a0b1412fb2129","infoHashBuffer":{"type":"Buffer","data":[27,117,251,217,185,28,133,253,10,1,84,37,85,138,11,20,18,251,33,41]},"announce":[],"urlList":[]}}